#Comment line ignore any data following # character 
#Hierarchical Translation and Rotation (.htr) file 
[Header]	
#Header keywords are followed by a single value 
FileType HTR		#Single word string
DataType HTRS		#Translation followed by rotation and scale data
FileVersion 1		#integer
NumSegments 64		#integer
NumFrames 3		#integer
DataFrameRate 30		#integer, data frame rate in this file
EulerRotationOrder ZYX
CalibrationUnits mm
RotationUnits Degrees
GlobalAxisofGravity Y
BoneLengthAxis Y
ScaleFactor 1.00
[SegmentNames&Hierarchy]
#CHILD	PARENT
Pinger_Root GLOBAL
Pelvis Pinger_Root
L_Hip Pelvis
R_Hip Pelvis
Rear_Leg01 Pelvis
Spine1 Pelvis
L_Leg01 L_Hip
L_Leg02 L_Leg01
L_Leg03 L_Leg02
L_Foot L_Leg03
L_Toe1_01 L_Foot
L_Toe2_01 L_Foot
L_Toe3_01 L_Foot
planeAlignerLeft L_Foot
L_Toe1_02 L_Toe1_01
L_Toe1_03 L_Toe1_02
L_Toe2_02 L_Toe2_01
L_Toe2_03 L_Toe2_02
L_Toe3_02 L_Toe3_01
L_Toe3_03 L_Toe3_02
planeLockWeightLeft planeAlignerLeft
R_Leg01 R_Hip
R_Leg02 R_Leg01
R_Leg03 R_Leg02
R_Foot R_Leg03
planeAlignerRight R_Foot
R_Toe1_01 R_Foot
R_Toe2_01 R_Foot
R_Toe3_01 R_Foot
planeLockWeightRight planeAlignerRight
R_Toe1_02 R_Toe1_01
R_Toe1_03 R_Toe1_02
R_Toe2_02 R_Toe2_01
R_Toe2_03 R_Toe2_02
R_Toe3_02 R_Toe3_01
R_Toe3_03 R_Toe3_02
Rear_Leg02 Rear_Leg01
Rear_Leg03 Rear_Leg02
Rear_Leg04 Rear_Leg03
Rear_Foot Rear_Leg04
planeAlignerCenter Rear_Foot
Rear_Toe1_01 Rear_Foot
Rear_Toe2_01 Rear_Foot
Rear_Toe3_01 Rear_Foot
planeLockWeightCenter planeAlignerCenter
Rear_Toe1_02 Rear_Toe1_01
Rear_Toe1_03 Rear_Toe1_02
Rear_Toe2_02 Rear_Toe2_01
Rear_Toe2_03 Rear_Toe2_02
Rear_Toe3_02 Rear_Toe3_01
Rear_Toe3_03 Rear_Toe3_02
Back_Bone Spine1
Head Spine1
Motor_Bone Back_Bone
Ping_Mechanism Back_Bone
BN_LookIK Head
bottomMouth Head
L_Mouth01 Head
L_mouthFront Head
mouthGun Head
R_Mouth01 Head
R_mouthFront Head
TopMouth Head
weapon_bone Head
[BasePosition]
#SegmentName Tx, Ty, Tz, Rx, Ry, Rz, BoneLength
Pinger_Root 0.000000 0.000000 0.000000 -90.000000 0.000000 0.000000 10.000000 
Pelvis 0.000000 0.000000 0.000000 0.000000 0.000000 0.000000 10.000000 
L_Hip 0.000000 0.000000 0.000000 0.000000 0.000000 0.000000 10.000000 
R_Hip 0.000000 0.000000 0.000000 0.000000 0.000000 0.000000 10.000000 
Rear_Leg01 0.000000 0.000000 0.000000 0.000000 0.000000 0.000000 10.000000 
Spine1 0.000000 0.000000 0.000000 0.000000 0.000000 0.000000 10.000000 
L_Leg01 0.000000 0.000000 0.000000 0.000000 0.000000 0.000000 10.000000 
L_Leg02 0.000000 0.000000 0.000000 0.000000 0.000000 0.000000 10.000000 
L_Leg03 0.000000 0.000000 0.000000 0.000000 0.000000 0.000000 10.000000 
L_Foot 0.000000 0.000000 0.000000 0.000000 0.000000 0.000000 10.000000 
L_Toe1_01 0.000000 0.000000 0.000000 0.000000 0.000000 0.000000 10.000000 
L_Toe2_01 0.000000 0.000000 0.000000 0.000000 0.000000 0.000000 10.000000 
L_Toe3_01 0.000000 0.000000 0.000000 0.000000 0.000000 0.000000 10.000000 
planeAlignerLeft 0.000000 0.000000 0.000000 0.000000 0.000000 0.000000 10.000000 
L_Toe1_02 0.000000 0.000000 0.000000 0.000000 0.000000 0.000000 10.000000 
L_Toe1_03 0.000000 0.000000 0.000000 0.000000 0.000000 0.000000 10.000000 
L_Toe2_02 0.000000 0.000000 0.000000 0.000000 0.000000 0.000000 10.000000 
L_Toe2_03 0.000000 0.000000 0.000000 0.000000 0.000000 0.000000 10.000000 
L_Toe3_02 0.000000 0.000000 0.000000 0.000000 0.000000 0.000000 10.000000 
L_Toe3_03 0.000000 0.000000 0.000000 0.000000 0.000000 0.000000 10.000000 
planeLockWeightLeft 0.000000 0.000000 0.000000 0.000000 0.000000 0.000000 10.000000 
R_Leg01 0.000000 0.000000 0.000000 0.000000 0.000000 0.000000 10.000000 
R_Leg02 0.000000 0.000000 0.000000 0.000000 0.000000 0.000000 10.000000 
R_Leg03 0.000000 0.000000 0.000000 0.000000 0.000000 0.000000 10.000000 
R_Foot 0.000000 0.000000 0.000000 0.000000 0.000000 0.000000 10.000000 
planeAlignerRight 0.000000 0.000000 0.000000 0.000000 0.000000 0.000000 10.000000 
R_Toe1_01 0.000000 0.000000 0.000000 0.000000 0.000000 0.000000 10.000000 
R_Toe2_01 0.000000 0.000000 0.000000 0.000000 0.000000 0.000000 10.000000 
R_Toe3_01 0.000000 0.000000 0.000000 0.000000 0.000000 0.000000 10.000000 
planeLockWeightRight 0.000000 0.000000 0.000000 0.000000 0.000000 0.000000 10.000000 
R_Toe1_02 0.000000 0.000000 0.000000 0.000000 0.000000 0.000000 10.000000 
R_Toe1_03 0.000000 0.000000 0.000000 0.000000 0.000000 0.000000 10.000000 
R_Toe2_02 0.000000 0.000000 0.000000 0.000000 0.000000 0.000000 10.000000 
R_Toe2_03 0.000000 0.000000 0.000000 0.000000 0.000000 0.000000 10.000000 
R_Toe3_02 0.000000 0.000000 0.000000 0.000000 0.000000 0.000000 10.000000 
R_Toe3_03 0.000000 0.000000 0.000000 0.000000 0.000000 0.000000 10.000000 
Rear_Leg02 0.000000 0.000000 0.000000 0.000000 0.000000 0.000000 10.000000 
Rear_Leg03 0.000000 0.000000 0.000000 0.000000 0.000000 0.000000 10.000000 
Rear_Leg04 0.000000 0.000000 0.000000 0.000000 0.000000 0.000000 10.000000 
Rear_Foot 0.000000 0.000000 0.000000 0.000000 0.000000 0.000000 10.000000 
planeAlignerCenter 0.000000 0.000000 0.000000 0.000000 0.000000 0.000000 10.000000 
Rear_Toe1_01 0.000000 0.000000 0.000000 0.000000 0.000000 0.000000 10.000000 
Rear_Toe2_01 0.000000 0.000000 0.000000 0.000000 0.000000 0.000000 10.000000 
Rear_Toe3_01 0.000000 0.000000 0.000000 0.000000 0.000000 0.000000 10.000000 
planeLockWeightCenter 0.000000 0.000000 0.000000 0.000000 0.000000 0.000000 10.000000 
Rear_Toe1_02 0.000000 0.000000 0.000000 0.000000 0.000000 0.000000 10.000000 
Rear_Toe1_03 0.000000 0.000000 0.000000 0.000000 0.000000 0.000000 10.000000 
Rear_Toe2_02 0.000000 0.000000 0.000000 0.000000 0.000000 0.000000 10.000000 
Rear_Toe2_03 0.000000 0.000000 0.000000 0.000000 0.000000 0.000000 10.000000 
Rear_Toe3_02 0.000000 0.000000 0.000000 0.000000 0.000000 0.000000 10.000000 
Rear_Toe3_03 0.000000 0.000000 0.000000 0.000000 0.000000 0.000000 10.000000 
Back_Bone 0.000000 0.000000 0.000000 0.000000 0.000000 0.000000 10.000000 
Head 0.000000 0.000000 0.000000 0.000000 0.000000 0.000000 10.000000 
Motor_Bone 0.000000 0.000000 0.000000 0.000000 0.000000 0.000000 10.000000 
Ping_Mechanism 0.000000 0.000000 0.000000 0.000000 0.000000 0.000000 10.000000 
BN_LookIK 0.000000 0.000000 0.000000 0.000000 0.000000 0.000000 10.000000 
bottomMouth 0.000000 0.000000 0.000000 0.000000 0.000000 0.000000 10.000000 
L_Mouth01 0.000000 0.000000 0.000000 0.000000 0.000000 0.000000 10.000000 
L_mouthFront 0.000000 0.000000 0.000000 0.000000 0.000000 0.000000 10.000000 
mouthGun 0.000000 0.000000 0.000000 0.000000 0.000000 0.000000 10.000000 
R_Mouth01 0.000000 0.000000 0.000000 0.000000 0.000000 0.000000 10.000000 
R_mouthFront 0.000000 0.000000 0.000000 0.000000 0.000000 0.000000 10.000000 
TopMouth 0.000000 0.000000 0.000000 0.000000 0.000000 0.000000 10.000000 
weapon_bone 0.000000 0.000000 0.000000 0.000000 0.000000 0.000000 10.000000 
#Beginning of Data. Separated by tabs
#Fr	Tx	Ty	Tz	Rx	Ry	Rz	SF
[Pinger_Root]
18 0.000000 0.000000 0.000000 -0.000075 -0.000000 -0.000020 0.000000
19 0.000000 0.000000 0.000000 -0.000075 -0.000000 -0.000020 0.000000
20 0.000000 0.000000 0.000000 -0.000075 -0.000000 -0.000020 0.000000
[Pelvis]
18 -742.898315 509.368073 4353.175781 -150.566391 -80.700050 142.596405 4445.390137
19 -748.838318 505.831421 4364.772461 -153.445694 -81.027519 145.510178 4457.337891
20 -754.214844 502.677307 4371.039063 -156.535385 -81.330368 148.634293 4464.023438
[L_Hip]
18 5.766392 125.831482 872.656799 160.158691 -45.484905 122.312202 881.701050
19 5.766392 125.831482 872.656799 160.158691 -45.484905 122.312202 881.701050
20 5.766392 125.831482 872.656799 160.158691 -45.484894 122.312202 881.701050
[R_Hip]
18 5.765438 125.836372 -872.654907 38.087841 49.812687 125.703735 881.699829
19 5.765438 125.836372 -872.654907 38.087841 49.812687 125.703735 881.699829
20 5.765438 125.836372 -872.654907 38.087841 49.812687 125.703735 881.699829
[Rear_Leg01]
18 -192.298416 -925.602966 -0.001907 168.699997 6.014919 -166.011292 945.367432
19 -192.298416 -925.602966 -0.001907 168.724564 6.149762 -165.487717 945.367432
20 -192.298416 -925.602966 -0.001907 168.750381 6.284381 -164.963913 945.367432
[Spine1]
18 290.604584 5.007505 0.000477 26.493006 -9.477767 -1.964055 290.647736
19 290.604584 5.007505 0.000477 26.475204 -9.499718 -1.925790 290.647736
20 290.604584 5.007505 0.000477 26.457382 -9.521652 -1.887515 290.647736
[L_Leg01]
18 761.932007 -0.002384 -0.069261 16.137646 -21.542650 6.099275 761.932068
19 761.932007 -0.002384 -0.069261 16.564829 -21.448538 5.026435 761.932068
20 761.932007 -0.002384 -0.069261 17.050180 -21.343716 3.904994 761.932068
[L_Leg02]
18 1441.140503 -0.000954 -0.000715 3.809675 -0.191289 -139.984375 1441.140503
19 1441.140503 -0.000954 -0.000715 3.723722 -0.192179 -139.211090 1441.140503
20 1441.140503 -0.000954 -0.000715 3.637772 -0.191909 -138.437881 1441.140503
[L_Leg03]
18 1686.963989 -0.000715 -0.000954 -0.035823 0.015624 119.466965 1686.963989
19 1686.963989 -0.000715 -0.000954 -0.035476 0.014993 119.401474 1686.963989
20 1686.963989 -0.000715 -0.000954 -0.035128 0.014363 119.336014 1686.963989
[L_Foot]
18 3041.570068 -30.715107 11.297464 11.861233 12.384867 54.919128 3041.746094
19 3041.570068 -30.715107 11.297464 11.952394 12.429383 54.792320 3041.746094
20 3041.570068 -30.715107 11.297464 12.034153 12.446169 54.775715 3041.746094
[L_Toe1_01]
18 -188.216690 -224.732346 -21.137953 94.246674 -14.134026 -176.854050 293.899567
19 -188.216690 -224.732346 -21.137953 94.237625 -14.197523 -176.671600 293.899567
20 -188.216690 -224.732346 -21.137953 94.240074 -14.170848 -176.722763 293.899567
[L_Toe2_01]
18 200.746536 -219.926590 148.838394 -86.671860 -38.241848 -52.160362 332.896027
19 200.746536 -219.926590 148.838394 -86.572021 -38.224903 -52.381645 332.896027
20 200.746536 -219.926590 148.838394 -86.650261 -38.209026 -52.229847 332.896027
[L_Toe3_01]
18 188.832520 -219.859131 -191.078659 -96.265579 5.345345 -58.381092 347.140900
19 188.832520 -219.859131 -191.078659 -96.281105 5.269629 -58.612919 347.140900
20 188.832520 -219.859131 -191.078659 -96.274063 5.345962 -58.476700 347.140900
[planeAlignerLeft]
18 0.812531 -811.448792 -0.314951 0.000000 -90.000000 -90.001900 811.449280
19 0.812531 -811.448792 -0.314951 0.000000 -90.000000 -90.001900 811.449280
20 0.812531 -811.448792 -0.314951 0.000000 -90.000000 -90.001900 811.449280
[L_Toe1_02]
18 413.761139 0.000477 0.000000 0.001661 0.070377 0.001661 413.761139
19 413.761139 0.000477 0.000000 0.001661 0.070117 0.001661 413.761139
20 413.761139 0.000477 0.000000 0.001661 0.069856 0.001661 413.761139
[L_Toe1_03]
18 464.317322 0.000358 -0.000089 0.001673 -0.448396 -0.003292 464.317322
19 464.317322 0.000358 -0.000089 0.001673 -0.448396 -0.003292 464.317322
20 464.317322 0.000358 -0.000089 0.001673 -0.448396 -0.003292 464.317322
[L_Toe2_02]
18 342.235809 -0.000477 0.000238 0.001186 -73.415207 0.001186 342.235809
19 342.235809 -0.000477 0.000238 0.001186 -73.280899 0.001186 342.235809
20 342.235809 -0.000477 0.000238 0.001186 -73.319733 0.001186 342.235809
[L_Toe2_03]
18 420.210846 -0.000715 0.000000 -0.034244 87.972908 -0.030747 420.210846
19 420.210846 -0.000715 0.000000 -0.031156 87.759995 -0.027658 420.210846
20 420.210846 -0.000715 0.000000 -0.033226 87.907532 -0.029729 420.210846
[L_Toe3_02]
18 329.270111 0.000954 0.000000 0.004676 -84.448540 0.004676 329.270111
19 329.270111 0.000954 0.000000 0.004676 -84.443138 0.004676 329.270111
20 329.270111 0.000954 0.000000 0.004676 -84.437752 0.004676 329.270111
[L_Toe3_03]
18 439.137451 -0.001907 0.000954 179.992538 53.846714 179.999893 439.137451
19 439.137451 -0.001907 0.000954 179.992523 54.063129 179.999878 439.137451
20 439.137451 -0.001907 0.000954 179.992538 53.965534 179.999878 439.137451
[planeLockWeightLeft]
18 -0.000954 0.000238 -0.000305 -0.011826 -0.004376 0.005620 0.001029
19 -0.000954 0.000238 -0.000305 -0.011826 -0.004376 0.005620 0.001029
20 -0.000954 0.000238 -0.000305 -0.011826 -0.004376 0.005620 0.001029
[R_Leg01]
18 761.455627 -0.001907 -0.000358 121.008430 4.121665 42.990509 761.455688
19 761.455627 -0.001907 -0.000358 120.925194 5.446487 43.876526 761.455688
20 761.455627 -0.001907 -0.000358 120.767853 6.581754 44.490238 761.455688
[R_Leg02]
18 1441.140625 0.000000 -0.000238 0.376062 0.105492 -70.804482 1441.140625
19 1441.140625 0.000000 -0.000238 0.445201 0.096484 -68.670685 1441.140625
20 1441.140625 0.000000 -0.000238 0.488937 0.089233 -67.180023 1441.140625
[R_Leg03]
18 1686.963989 0.000954 0.001431 0.025299 -0.009577 116.616508 1686.963989
19 1686.963989 0.000954 0.001431 0.018545 -0.007847 115.871017 1686.963989
20 1686.963989 0.000954 0.001431 0.018580 -0.007763 115.350883 1686.963989
[R_Foot]
18 3041.560059 -30.531288 -11.204481 8.826235 -23.733921 32.723377 3041.734131
19 3041.560059 -30.531288 -11.204481 8.824465 -23.723728 32.424217 3041.734131
20 3041.560059 -30.531288 -11.204481 8.822637 -23.713551 32.125088 3041.734131
[planeAlignerRight]
18 -0.635147 -812.270569 -0.364304 0.000000 -89.960434 -90.005180 812.270874
19 -0.635147 -812.270569 -0.364304 0.000000 -89.960434 -90.005180 812.270874
20 -0.635147 -812.270569 -0.364304 0.000000 -89.960434 -90.005180 812.270874
[R_Toe1_01]
18 -188.383347 -224.864899 21.052242 77.022949 -3.230686 -171.095398 294.101532
19 -188.383347 -224.864899 21.052242 77.040504 -3.342130 -171.270294 294.101532
20 -188.383347 -224.864899 21.052242 77.041985 -3.352218 -171.288010 294.101532
[R_Toe2_01]
18 200.637817 -220.002121 -148.787384 -90.973511 29.387722 -59.787106 332.857574
19 200.637817 -220.002121 -148.787384 -90.870285 29.344160 -59.623543 332.857574
20 200.637817 -220.002121 -148.787384 -90.859421 29.341841 -59.604343 332.857574
[R_Toe3_01]
18 188.606735 -220.092957 191.126343 -72.062897 -10.098989 -75.734268 347.192566
19 188.606735 -220.092957 191.126343 -72.017929 -10.200292 -75.638618 347.192566
20 188.606735 -220.092957 191.126343 -72.013397 -10.210077 -75.625969 347.192566
[planeLockWeightRight]
18 -0.000477 0.000000 0.000000 -0.011823 -0.004379 -0.000027 0.000477
19 -0.000477 0.000000 0.000000 -0.011823 -0.004379 -0.000027 0.000477
20 -0.000477 0.000000 0.000000 -0.011823 -0.004379 -0.000027 0.000477
[R_Toe1_02]
18 413.762085 0.000477 -0.000119 0.000006 -25.434675 -0.000005 413.762085
19 413.762085 0.000477 -0.000119 0.000006 -25.434675 -0.000005 413.762085
20 413.762085 0.000477 -0.000119 0.000006 -25.434675 -0.000005 413.762085
[R_Toe1_03]
18 464.317810 0.000000 0.001088 0.007013 70.731895 0.007013 464.317810
19 464.317810 0.000000 0.001088 0.007094 70.954094 0.007094 464.317810
20 464.317810 0.000000 0.001088 0.007102 70.977135 0.007102 464.317810
[R_Toe2_02]
18 342.234741 -0.000954 0.000238 0.001198 -66.670036 0.001198 342.234741
19 342.234741 -0.000954 0.000238 0.001198 -66.835686 0.001198 342.234741
20 342.234741 -0.000954 0.000238 0.001198 -66.854149 0.001198 342.234741
[R_Toe2_03]
18 420.210846 0.000715 -0.000268 0.007787 72.663765 0.007787 420.210846
19 420.210846 0.000715 -0.000268 0.007840 72.780518 0.007840 420.210846
20 420.210846 0.000715 -0.000268 0.007893 72.897308 0.007893 420.210846
[R_Toe3_02]
18 329.270355 -0.000477 -0.000954 -0.010427 -69.537621 0.009259 329.270355
19 329.270355 -0.000477 -0.000954 -0.010454 -69.593025 0.009286 329.270355
20 329.270355 -0.000477 -0.000954 -0.010480 -69.648422 0.009312 329.270355
[R_Toe3_03]
18 439.137939 0.000238 0.001431 0.007817 72.731285 0.007817 439.137939
19 439.137939 0.000238 0.001431 0.007829 72.756409 0.007829 439.137939
20 439.137939 0.000238 0.001431 0.007840 72.781448 0.007840 439.137939
[Rear_Leg02]
18 1162.777710 -0.029802 0.005960 1.219032 -2.718728 -136.007782 1162.777710
19 1162.777710 -0.029802 0.005960 1.217005 -2.719636 -135.922348 1162.777710
20 1162.777710 -0.029802 0.005960 1.227216 -2.715186 -136.149048 1162.777710
[Rear_Leg03]
18 607.192505 -0.013351 -0.073195 0.010471 -0.005150 68.734375 607.192505
19 607.192505 -0.013351 -0.073195 0.010469 -0.005153 68.765854 607.192505
20 607.192505 -0.013351 -0.073195 0.010468 -0.005156 68.797348 607.192505
[Rear_Leg04]
18 995.874512 -0.020504 -0.011921 -0.040242 -0.018697 67.522446 995.874573
19 995.874512 -0.020504 -0.011921 -0.040247 -0.018687 67.549225 995.874573
20 995.874512 -0.020504 -0.011921 -0.040251 -0.018678 67.576004 995.874573
[Rear_Foot]
18 3096.176270 -0.067472 -0.041425 -16.792185 80.996346 172.005005 3096.176270
19 3096.176270 -0.067472 -0.041425 -16.695009 80.934013 171.989960 3096.176270
20 3096.176270 -0.067472 -0.041425 -16.589144 80.877319 172.091171 3096.176270
[planeAlignerCenter]
18 0.350077 0.966311 -838.790894 0.000009 0.000003 -179.999985 838.791565
19 0.350077 0.966311 -838.790894 0.000009 0.000003 -179.999985 838.791565
20 0.350077 0.966311 -838.790894 0.000009 0.000003 -179.999985 838.791565
[Rear_Toe1_01]
18 0.653352 83.966492 -371.173737 0.288091 41.914127 90.413170 380.553192
19 0.653352 83.966492 -371.173737 0.288095 41.914139 90.413193 380.553192
20 0.653352 83.966492 -371.173737 0.288091 41.914127 90.413170 380.553192
[Rear_Toe2_01]
18 178.200760 -294.826019 -362.060547 -7.196267 34.406261 -66.271294 499.765686
19 178.200760 -294.826019 -362.060547 -7.196268 34.406261 -66.271294 499.765686
20 178.200760 -294.826019 -362.060547 -7.196267 34.406261 -66.271294 499.765686
[Rear_Toe3_01]
18 -153.359680 -308.780914 -362.060852 3.289418 33.518005 -112.540970 499.952881
19 -153.359680 -308.780914 -362.060852 3.289418 33.518005 -112.540970 499.952881
20 -153.359680 -308.780914 -362.060852 3.289418 33.518005 -112.540970 499.952881
[planeLockWeightCenter]
18 -0.000062 0.000238 0.000000 -0.011814 -0.004373 -0.000015 0.000246
19 -0.000062 0.000238 0.000000 -0.011814 -0.004373 -0.000015 0.000246
20 -0.000062 0.000238 0.000000 -0.011814 -0.004373 -0.000015 0.000246
[Rear_Toe1_02]
18 379.707825 0.194073 0.000477 -0.000242 -31.676744 0.006934 379.707855
19 379.707825 0.194073 0.000477 -0.000242 -31.676744 0.006934 379.707855
20 379.707825 0.194073 0.000477 -0.000242 -31.676744 0.006934 379.707855
[Rear_Toe1_03]
18 500.129700 0.165701 0.000119 -0.000103 51.902466 0.007295 500.129761
19 500.129700 0.165701 0.000119 -0.000103 51.902481 0.007295 500.129761
20 500.129700 0.165701 0.000119 -0.000103 51.902481 0.007295 500.129761
[Rear_Toe2_02]
18 340.494507 0.000238 -0.000954 0.001192 -69.854523 0.001192 340.494507
19 340.494507 0.000238 -0.000954 0.001192 -69.854523 0.001192 340.494507
20 340.494507 0.000238 -0.000954 0.001192 -69.854523 0.001192 340.494507
[Rear_Toe2_03]
18 433.103577 0.000000 0.000238 0.006696 69.810303 0.006696 433.103546
19 433.103577 0.000000 0.000238 0.006696 69.810341 0.006696 433.103546
20 433.103577 0.000000 0.000238 0.006696 69.810326 0.006696 433.103546
[Rear_Toe3_02]
18 340.494141 -0.000358 -0.000477 0.008288 -67.274704 -0.009460 340.494171
19 340.494141 -0.000358 -0.000477 0.008288 -67.274704 -0.009460 340.494171
20 340.494141 -0.000358 -0.000477 0.008288 -67.274704 -0.009460 340.494171
[Rear_Toe3_03]
18 433.103577 0.001431 -0.000238 -0.000972 65.958984 -0.004547 433.103546
19 433.103577 0.001431 -0.000238 -0.000972 65.958984 -0.004547 433.103546
20 433.103577 0.001431 -0.000238 -0.000972 65.958961 -0.004547 433.103546
[Back_Bone]
18 1312.175781 -701.934692 0.000954 0.000023 -0.000007 -85.606667 1488.125488
19 1312.175781 -701.934692 0.000954 0.000023 -0.000007 -85.606667 1488.125488
20 1312.175781 -701.934692 0.000954 0.000023 -0.000007 -85.606667 1488.125488
[Head]
18 1406.159424 809.709290 0.001431 -0.216885 -0.490374 7.059680 1622.625488
19 1406.159424 809.709290 0.001431 -0.009232 0.970438 9.826213 1622.625488
20 1406.159424 809.709290 0.001431 0.216719 1.779399 11.251158 1622.625488
[Motor_Bone]
18 1158.364380 -417.834747 0.000477 -0.000105 0.000046 -105.985291 1231.419434
19 1158.364380 -417.834747 0.000477 -0.000105 0.000046 -105.985291 1231.419434
20 1158.364380 -417.834747 0.000477 -0.000105 0.000046 -105.985291 1231.419434
[Ping_Mechanism]
18 1215.237793 -433.297150 0.000954 0.000103 -0.000053 82.120995 1290.174072
19 1215.237793 -433.297150 0.000954 0.000103 -0.000053 82.120995 1290.174072
20 1215.237793 -433.297150 0.000954 0.000103 -0.000053 82.120995 1290.174072
[BN_LookIK]
18 193.241119 1380.371704 -0.002861 0.000000 89.965736 -31.038179 1393.832153
19 193.241119 1380.371704 -0.002861 0.000000 89.965736 -31.038179 1393.832153
20 193.241119 1380.371704 -0.002861 0.000000 89.965736 -31.038179 1393.832153
[bottomMouth]
18 -435.092926 615.759399 -0.000954 -0.000022 0.000016 73.527184 753.966492
19 -435.092926 615.759399 -0.000954 -0.000022 0.000016 73.527184 753.966492
20 -435.092926 615.759399 -0.000954 -0.000022 0.000016 73.527184 753.966492
[L_Mouth01]
18 554.440979 7.658243 838.222046 150.204178 23.759130 109.605339 1005.027161
19 554.440979 7.658243 838.222046 150.204178 23.759130 109.605339 1005.027161
20 554.440979 7.658243 838.222046 150.204178 23.759130 109.605339 1005.027161
[L_mouthFront]
18 551.629089 934.514771 339.150421 0.000081 2.804060 79.119301 1136.941284
19 551.629089 934.514771 339.150421 0.000081 2.804060 79.119301 1136.941284
20 551.629089 934.514771 339.150421 0.000081 2.804060 79.119301 1136.941284
[mouthGun]
18 55.332661 1627.420898 0.000000 0.000023 0.000009 -11.038128 1628.361328
19 55.332661 1627.420898 0.000000 0.000023 0.000009 -11.038128 1628.361328
20 55.332661 1627.420898 0.000000 0.000023 0.000009 -11.038128 1628.361328
[R_Mouth01]
18 554.442383 7.659197 -838.223938 29.795891 -23.759109 109.605331 1005.029541
19 554.442383 7.659197 -838.223938 29.795891 -23.759109 109.605331 1005.029541
20 554.442383 7.659197 -838.223938 29.795891 -23.759109 109.605331 1005.029541
[R_mouthFront]
18 551.629089 934.514282 -339.151367 0.000029 -2.803930 79.119133 1136.941162
19 551.629089 934.514282 -339.151367 0.000029 -2.803930 79.119133 1136.941162
20 551.629089 934.514282 -339.151367 0.000029 -2.803930 79.119133 1136.941162
[TopMouth]
18 461.269867 -56.106091 -0.008583 -0.000059 -0.000268 92.025169 464.669525
19 461.269867 -56.106091 -0.008583 -0.000059 -0.000268 92.025169 464.669525
20 461.269867 -56.106091 -0.008583 -0.000059 -0.000268 92.025169 464.669525
[weapon_bone]
18 -987.239868 1448.372803 0.001431 0.000000 89.965736 -31.038221 1752.833740
19 -987.239868 1448.372803 0.001431 0.000000 89.965736 -31.038221 1752.833740
20 -987.239868 1448.372803 0.001431 0.000000 89.965736 -31.038221 1752.833740
